<?xml version="1.0" encoding="utf-8"?>
<!-- Generator: Adobe Illustrator 24.3.0, SVG Export Plug-In . SVG Version: 6.00 Build 0)  -->
<svg version="1.1" id="Layer_1" xmlns="http://www.w3.org/2000/svg" xmlns:xlink="http://www.w3.org/1999/xlink" x="0px" y="0px"
	 viewBox="0 0 64.2 65.1" style="enable-background:new 0 0 64.2 65.1;" xml:space="preserve">
<style type="text/css">
	.st0{fill:#E31F27;}
	.st1{fill:#FFFFFF;}
</style>
<g id="Ebene_2">
	<g id="Ebene_1-2">
		<path d="M57.6,47.1l-0.8-19.7v-0.1c-0.5-3-2.7-5.4-5.7-6l-32.8-7.4c-2.9-0.7-6,0.4-7.7,2.9v0L1.3,34.3C0.8,35.1,0.4,36,0.2,37
			c-1.1,4.8,1.9,9.6,6.8,10.7c4.6,1.1,9-1.2,10.4-5.5c1-2.3,1.8-2.7,2-2.8l0.2,0.1L39,44l0.2,0c0.1,0.1,0.7,0.8,0.6,3.3
			c-0.6,4.4,2.3,8.4,7,9.5c4.8,1,9.6-2,10.7-6.8C57.7,49,57.8,48,57.6,47.1z M41.9,35.5c0.2-0.9,1.1-1.4,1.9-1.2
			c0.9,0.2,1.4,1.1,1.2,1.9c-0.2,0.9-1,1.4-1.9,1.2C42.3,37.3,41.7,36.4,41.9,35.5C41.9,35.5,41.9,35.5,41.9,35.5z M40.4,33.2
			c-0.9-0.2-1.4-1.1-1.2-1.9c0.2-0.9,1-1.4,1.9-1.2c0,0,0,0,0,0c0.9,0.2,1.4,1,1.2,1.9c0,0,0,0.1,0,0.1
			C42.1,32.9,41.3,33.4,40.4,33.2z M44.7,30.5c-0.9-0.2-1.4-1.1-1.2-1.9c0.2-0.9,1.1-1.4,1.9-1.2c0.9,0.2,1.4,1.1,1.2,1.9
			C46.4,30.1,45.6,30.7,44.7,30.5z M46.2,32.8c0.2-0.9,1.1-1.4,1.9-1.2c0.9,0.2,1.4,1.1,1.2,1.9s-1.1,1.4-1.9,1.2c0,0,0,0,0,0
			C46.5,34.6,46,33.7,46.2,32.8z M14.2,27.5L15,24l3.4,0.8l0.8-3.4l3.5,0.8l-0.8,3.4l3.4,0.8l-0.8,3.5l-3.4-0.8l-0.8,3.4l-3.5-0.8
			l0.8-3.4L14.2,27.5z"/>
		<path class="st0" d="M5.3,11.3c-0.7,0.9-1.4,1.9-2,2.9l-1.6,2.8c-0.5,0.9-0.5,2,0,2.9C1.8,20,1.9,20.1,2,20.2
			c0.6,0.6,1.4,0.9,2.3,0.8l1.5-0.2l1.8-0.4c1.6-0.6,3.2-1.3,4.7-2.1l4.8-2.6c1.3-0.7,2.8-1.3,4.2-1.7l1-0.3
			c0.2-0.1,0.4-0.1,0.6-0.1c1.7,0,3.4,0.1,5.1,0.3h0.1c2.2,0.3,3.8,2.4,3.5,4.6c-0.1,0.9-0.5,1.7-1.1,2.3l0,0c0,0-1.7,1.8-2.6,0.5
			C27,20.6,26,20.2,25,20.2c0,0-2.4,0.2-2,2c0.1,0.8,0.8,1.3,1.6,1.2c0.1,0,0.2,0,0.3-0.1c0.6-0.4,1.3-0.5,2-0.2
			c1.2,0.4,0.4,1,0.4,1L26,25.4c-0.5,0.4-1,0.8-1.6,1.1L24,26.8c-1,0.5-1.3,1.8-0.8,2.7c0,0.1,0.1,0.1,0.1,0.2
			c1.1,1.5,2.4-0.8,2.4-0.8c0.7-1.2,1.8-2.3,3.1-2.9c1.2-0.6,0.8,0.8,0.8,0.8c-0.7,1.5-1.8,2.9-3,4.1c-1.2,1.2,0.4,2.3,0.4,2.3
			s0.7,0.9,2.1-1c0.8-1.2,1.4-2.5,1.8-3.9c0,0,0.8-3.3,1.6-2.8c0.5,0.4,0.7,1.1,0.3,1.7c-0.4,0.7-0.6,1.4-0.8,2.1
			c-0.3,1.5,0.6,2,0.6,2s1.6,1.4,2.2-1.5c0.3-1.4,0.2-2.8-0.4-4.1c-0.4-0.8-0.2-1.8,0.5-2.4l0.6-0.5c0.7-0.6,1.3-1.4,1.7-2.2
			c0.1-0.4,0.4-0.8,0.7-1.1c0.9-0.8,2.3-0.9,3.3-0.1c2,1.2,3.9,2.5,5.6,4.1c1.2,1.2,2.3,2.5,3.3,3.8c0.8,1.1,0.6,2.6-0.3,3.5
			l-3.8,3.5c-0.3-0.2-0.6-0.5-0.9-0.8c-0.2-0.3-0.5-0.5-0.9-0.5c0,0-2.2-0.3-2.8,1.2s0.9,0.9,0.9,0.9s1.9-1,2.5-0.4s0,0.7,0,0.7
			c-0.7,0.3-1.4,0.5-2.2,0.6c-1.9,0.4-2.4,1.5-2.4,1.5s-1,1.9,1.2,0.9c2.7-1.1,3-0.9,3-0.9s1,0.5-1.7,2c-2,1.1-0.5,2.4-0.5,2.4
			s1.1,1,1.9-0.5c0.7-1.1,1.5-2.2,2.4-3.1c0.5-0.5,0.5,0.4,0.5,0.4c0,0.3,0,0.5-0.1,0.8c-0.1,0.7-0.1,1.4,0.1,2.1
			c0.3,0.7,1.1,0.4,1.1,0.4s1.4-0.3,0.6-2.4c-0.6-1-0.5-2.3,0.2-3.3l0,0c1.4-1.4,3.7-1.4,5.1,0c1,1,1.3,2.5,0.8,3.8l-0.1,0.3
			l0.1-0.1c0,0.1-0.1,0.3-0.2,0.4c-1.6,3.7-3.9,7-6.7,9.8c-4.5,4.5-10.4,7.4-16.7,8.3c-12.9,0.8-25.1-6.1-31-17.7
			c0,0.1,0,0.2,0.1,0.2c4.9,17.3,22.9,27.3,40.2,22.4c5.2-1.5,9.9-4.2,13.8-8l0.6-0.6c12.6-12.9,12.3-33.5-0.6-46
			c-7.7-7.5-18.5-10.7-29-8.6l0,0C21,1.5,16.9,3.2,13.2,5.7l-0.1,0.1c-0.1,0.1-1.9,1.1-1.9,1.2c-0.6,0.5-1.4,0.7-2.1,0.7
			C8.2,7.4,7.2,7.6,6.5,8.3c-0.6,0.6-0.9,1.4-1,2.2v0.6L5.3,11.3z"/>
		<circle class="st1" cx="12.6" cy="12.8" r="3.3"/>
		<ellipse transform="matrix(0.829 -0.5592 0.5592 0.829 -5.0273 9.2575)" class="st0" cx="12.6" cy="12.9" rx="0.6" ry="2.5"/>
	</g>
</g>
</svg>
