<?xml version="1.0" encoding="UTF-8" standalone="no"?>
<svg
   version="1.1"
   id="Layer_1"
   x="0px"
   y="0px"
   width="110px"
   height="110px"
   viewBox="0.786 0.696 110 110"
   enable-background="new 0.786 0.696 110 110"
   xml:space="preserve"
   sodipodi:docname="icon-black-large.svg"
   inkscape:version="1.4 (e7c3feb100, 2024-10-09)"
   inkscape:export-filename="icon-black.png"
   inkscape:export-xdpi="261.81818"
   inkscape:export-ydpi="261.81818"
   xmlns:inkscape="http://www.inkscape.org/namespaces/inkscape"
   xmlns:sodipodi="http://sodipodi.sourceforge.net/DTD/sodipodi-0.dtd"
   xmlns="http://www.w3.org/2000/svg"
   xmlns:svg="http://www.w3.org/2000/svg"><defs
   id="defs5" /><sodipodi:namedview
   id="namedview5"
   pagecolor="#ffffff"
   bordercolor="#000000"
   borderopacity="0.25"
   inkscape:showpageshadow="2"
   inkscape:pageopacity="0.0"
   inkscape:pagecheckerboard="0"
   inkscape:deskcolor="#d1d1d1"
   inkscape:zoom="5.8818182"
   inkscape:cx="55"
   inkscape:cy="55"
   inkscape:window-width="1422"
   inkscape:window-height="840"
   inkscape:window-x="0"
   inkscape:window-y="0"
   inkscape:window-maximized="1"
   inkscape:current-layer="Layer_1" />

<g
   id="g5"
   style="fill:#000000"
   transform="matrix(1.4452351,0,0,1.3808518,-24.879295,-21.211921)">
	<path
   fill="#FFFFFF"
   d="m 35.736,24.002 c -6.399,0 -11.551,5.152 -11.551,11.551 v 40.288 c 0,6.398 5.15,11.55 11.551,11.55 h 40.287 c 6.397,0 11.55,-5.15 11.55,-11.55 V 35.552 c 0,-6.397 -5.151,-11.551 -11.55,-11.551 l -40.287,10e-4 z m 1.181,3.823 h 36.325 c 5.821,0 10.507,4.686 10.507,10.507 v 36.325 c 0,5.819 -4.686,10.507 -10.507,10.507 H 36.917 C 31.096,85.164 26.41,80.476 26.41,74.657 V 38.333 c 0,-5.823 4.686,-10.508 10.507,-10.508 z"
   id="path1"
   style="fill:#000000" />
	<g
   id="g4"
   style="fill:#000000">
		<path
   fill="#FFFFFF"
   d="m 46.025,57.291 h -3.663 l 8.174,-19.256 h 3.837 l 8.351,19.256 H 58.885 L 56.692,52.04 h -6.396 l 1.227,-3.097 h 3.878 l -3.03,-7.231 z"
   id="path2"
   style="fill:#000000" />
		<path
   fill="#FFFFFF"
   d="M 68.311,38.035 V 57.291 H 64.743 V 38.035 Z"
   id="path3"
   style="fill:#000000" />
		<path
   fill="#FFFFFF"
   d="m 71.475,40.864 h 2.639 l 0.539,2.289 h 3.555 v 2.828 h -3.164 v 6.504 c 0,1.317 0.57,1.979 1.71,1.979 h 1.454 v 2.828 H 75.03 c -2.37,0 -3.555,-1.27 -3.555,-3.811 z"
   id="path4"
   style="fill:#000000" />
	</g>
</g>
</svg>
